<svg width="12" height="12" viewBox="0 0 12 12" fill="none" xmlns="http://www.w3.org/2000/svg">
<path d="M11.9978 4.20001C11.978 3.85781 11.571 3.59041 10.757 3.38641C10.7844 3.32641 10.7998 3.26401 10.8 3.19921V1.80001H10.7966C10.725 0.634406 5.9486 0.600006 5.4 0.600006C4.8514 0.600006 0.075 0.634406 0.0034 1.80001H0V1.82601V3.19981C0.001 3.57981 0.4914 3.87721 1.221 4.09861C1.211 4.13181 1.205 4.16561 1.203 4.20001H1.2V4.22601V5.59741C0.414 5.79981 0.0214 6.06341 0.002 6.40001H0V6.42601V7.79981C0.0006 8.06441 0.2392 8.28881 0.6296 8.47581C0.6148 8.51641 0.6056 8.55781 0.603 8.60021H0.6V8.62621V10C0.6016 10.6652 2.0994 11.0782 3.7636 11.271C3.7758 11.2734 3.787 11.2784 3.8 11.2784C3.8038 11.2784 3.807 11.2764 3.8108 11.2762C4.1316 11.3124 4.4576 11.3406 4.7802 11.3608C4.787 11.3616 4.793 11.3648 4.8 11.3648C4.8038 11.3648 4.8068 11.3628 4.8104 11.3626C5.22 11.3874 5.623 11.4 6 11.4C6.377 11.4 6.78 11.3874 7.1896 11.3624C7.1932 11.3626 7.1964 11.3646 7.2 11.3646C7.207 11.3646 7.213 11.3612 7.2198 11.3606C7.5424 11.3404 7.8684 11.3124 8.1892 11.276C8.193 11.276 8.1962 11.278 8.2 11.278C8.213 11.278 8.2242 11.273 8.2364 11.2706C9.9006 11.0778 11.3982 10.6646 11.4 9.99921V8.60001H11.3968C11.3828 8.35481 11.1738 8.15021 10.761 7.97921C10.7862 7.92141 10.8 7.86141 10.8 7.79921V6.49201C11.518 6.27121 11.999 5.97581 12 5.59921V4.20001H11.9978ZM10.3784 7.86421L10.3102 7.92401C10.2052 8.01661 10.0302 8.11001 9.8 8.20001V7.24641C10.0378 7.16361 10.2402 7.07181 10.4 6.97121V7.79881C10.4 7.81941 10.3924 7.84141 10.3784 7.86421ZM5.9052 8.7936C5.876 8.7944 5.8466 8.79481 5.8172 8.79541C5.7458 8.79681 5.6726 8.7972 5.6002 8.7978V7.79881C5.6552 7.79821 5.7102 7.79741 5.7652 7.79641C5.7758 7.79621 5.7864 7.79601 5.797 7.79581C5.9984 7.79201 6.1998 7.78581 6.4002 7.77661V8.77521C6.3574 8.77741 6.3144 8.77941 6.271 8.78121C6.1506 8.7866 6.029 8.79061 5.9052 8.7936ZM5.0318 8.7964C4.9402 8.79481 4.849 8.79261 4.7584 8.78981C4.7472 8.78941 4.736 8.78901 4.7248 8.78861C4.6158 8.78501 4.5076 8.78041 4.4002 8.77521V7.77681C4.6006 7.78621 4.802 7.79241 5.0034 7.79601C5.014 7.79621 5.0246 7.79641 5.035 7.79661C5.09 7.79761 5.145 7.79841 5.2 7.79901V8.79861C5.1612 8.79821 5.1224 8.79821 5.0838 8.79761C5.0662 8.7972 5.0492 8.79661 5.0318 8.7964ZM1.4194 8.34041C1.4128 8.33841 1.4066 8.33661 1.4 8.33481V7.36861C1.5868 7.41901 1.7876 7.46501 2 7.50681V8.48301C1.8164 8.44401 1.647 8.40301 1.4928 8.36101C1.4684 8.35401 1.4432 8.34741 1.4194 8.34041ZM5.635 9.99661C5.69 9.99761 5.745 9.99841 5.8 9.99901V10.9988C5.5236 10.9962 5.2568 10.9882 5 10.9756V9.97701C5.2004 9.98641 5.4018 9.99261 5.6032 9.99621C5.6138 9.99621 5.6244 9.99641 5.635 9.99661ZM6.3968 9.99601C6.5982 9.99221 6.7996 9.98601 7 9.97681V10.9754C6.7432 10.988 6.4764 10.996 6.2 10.9986V9.99881C6.255 9.99821 6.31 9.99741 6.365 9.99641C6.3756 9.99641 6.3862 9.99621 6.3968 9.99601ZM8 9.90561V10.8988C7.8078 10.919 7.6078 10.9368 7.4 10.9514V9.95401C7.6028 9.94081 7.8032 9.92461 8 9.90561ZM8.4 9.86241C8.6062 9.83761 8.8064 9.80941 9 9.77801V10.76C8.8116 10.7932 8.6114 10.8238 8.4 10.8516V9.86241ZM9.4 9.70661C9.6124 9.66481 9.8132 9.6188 10 9.56841V10.5346C9.8218 10.586 9.6212 10.6358 9.4 10.6828V9.70661ZM2.6 9.70661V10.6828C2.3788 10.6358 2.1782 10.586 2 10.5346V9.56841C2.1868 9.6188 2.3876 9.66501 2.6 9.70661ZM3 9.7782C3.1936 9.80961 3.3938 9.83781 3.6 9.86261V10.8518C3.3886 10.824 3.1884 10.7934 3 10.7602V9.7782ZM4 9.90561C4.1968 9.92461 4.3972 9.94081 4.6 9.95421V10.9516C4.3922 10.937 4.1922 10.9192 4 10.899V9.90561ZM3.5038 8.70961C3.4834 8.70761 3.4632 8.70541 3.443 8.70341C3.4286 8.70201 3.4144 8.70021 3.4 8.69881V7.70581C3.5968 7.72481 3.7972 7.74101 4 7.75441V8.75101C3.832 8.73901 3.666 8.72541 3.5038 8.70961ZM3 7.66241V8.65161C2.7886 8.62381 2.5884 8.59321 2.4 8.56001V7.57801C2.5936 7.60941 2.7938 7.63781 3 7.66241ZM6.9332 8.74161C6.8892 8.74501 6.8448 8.74841 6.8 8.75161V7.75421C7.0028 7.74081 7.2032 7.72481 7.4 7.70561V8.69881C7.2764 8.71181 7.15 8.72401 7.0202 8.73461C6.9912 8.73721 6.9622 8.73941 6.9332 8.74161ZM7.8 8.65161V7.66241C8.0062 7.63761 8.2064 7.60941 8.4 7.57801V8.56001C8.2116 8.59321 8.0114 8.62401 7.8 8.65161ZM8.8 7.50661C9.0124 7.46481 9.2132 7.41881 9.4 7.36841V8.33461C9.2218 8.38601 9.0212 8.43581 8.8 8.48281V7.50661ZM6.065 6.59301C5.9146 6.58921 5.7676 6.58341 5.6232 6.57641C5.6154 6.57601 5.6076 6.57561 5.6 6.57541V5.57681C5.8004 5.58621 6.0018 5.59241 6.2032 5.59601C6.2138 5.59621 6.2244 5.59641 6.2348 5.59661C6.2898 5.59761 6.3448 5.59841 6.3998 5.59901V6.59761C6.3024 6.59661 6.2042 6.59621 6.1092 6.59401C6.0946 6.59361 6.0796 6.59341 6.065 6.59301ZM1.4 3.73481V2.76861C1.5868 2.81901 1.7876 2.86501 2 2.90681V3.88301C1.9754 3.87781 1.95 3.87261 1.926 3.86741C1.8196 3.84401 1.7158 3.81961 1.6166 3.79381C1.541 3.77441 1.4692 3.75461 1.4 3.73481ZM5.035 3.19661C5.09 3.19761 5.145 3.19841 5.2 3.19901V4.19761C4.9308 4.19501 4.6632 4.18801 4.4 4.17481V3.17701C4.6004 3.18641 4.8018 3.19261 5.0032 3.19621C5.0138 3.19621 5.0244 3.19641 5.035 3.19661ZM5.7968 3.19601C5.9982 3.19221 6.1996 3.18601 6.4 3.17681V4.17461C6.366 4.17621 6.3334 4.17861 6.2992 4.18021C6.2964 4.18041 6.2936 4.18041 6.2906 4.18061C6.1564 4.18661 6.0196 4.19101 5.881 4.19421C5.8594 4.19481 5.8378 4.19501 5.8162 4.19561C5.745 4.19701 5.6722 4.19721 5.6 4.19801V3.19901C5.655 3.19841 5.71 3.19761 5.765 3.19661C5.7756 3.19641 5.7862 3.19621 5.7968 3.19601ZM10.3542 3.29641L10.3486 3.29521L10.2758 3.35181C10.1702 3.43401 10.008 3.51721 9.8 3.59761V2.64621C10.0378 2.56341 10.2402 2.47161 10.4 2.37101V3.19861C10.4 3.22901 10.384 3.26181 10.3542 3.29641ZM7.8 4.05041V3.06241C8.0062 3.03761 8.2064 3.00941 8.4 2.97801V3.95841C8.2104 3.99201 8.0108 4.02281 7.8 4.05041ZM8.8 3.88141V2.90681C9.0124 2.86501 9.2132 2.81901 9.4 2.76861V3.73261C9.2208 3.78481 9.019 3.83461 8.8 3.88141ZM7.4 3.10561V4.09761C7.2068 4.11801 7.0068 4.13581 6.8 4.15061V3.15421C7.0028 3.14081 7.2032 3.12461 7.4 3.10561ZM3.4 4.09801V3.10561C3.5968 3.12461 3.7972 3.14081 4 3.15421V4.14981C3.7964 4.13521 3.5956 4.11861 3.4 4.09801ZM3 3.06241V4.05061C2.9604 4.04541 2.9192 4.04121 2.88 4.03581C2.8544 4.03221 2.83 4.02841 2.8048 4.02481C2.6892 4.00821 2.5762 3.99041 2.4654 3.97181C2.4432 3.96801 2.4218 3.96401 2.4 3.96021V2.97821C2.5936 3.00941 2.7938 3.03781 3 3.06241ZM5.1504 6.54781C5.1234 6.54581 5.0962 6.54381 5.0694 6.54181C4.9414 6.53181 4.8164 6.52081 4.6944 6.50861C4.6682 6.50601 4.642 6.50321 4.616 6.50061C4.6106 6.50001 4.6054 6.49921 4.6 6.49881V5.50561C4.7968 5.52461 4.9972 5.54081 5.2 5.55421V6.55101C5.1838 6.54981 5.1666 6.54901 5.1504 6.54781ZM3.829 6.39841C3.7498 6.38581 3.6754 6.37221 3.6 6.35901V5.37821C3.7936 5.40961 3.9938 5.43781 4.2 5.46261V6.45181C4.0776 6.43561 3.9578 6.41881 3.8428 6.40081C3.8382 6.39981 3.8336 6.39901 3.829 6.39841ZM3.2 5.30661V6.28121C2.979 6.23381 2.7786 6.18341 2.6 6.13101V5.16841C2.7868 5.21881 2.9876 5.26501 3.2 5.30661ZM2.2 5.04621V5.99641C1.8856 5.87501 1.6828 5.75101 1.6168 5.64061L1.6034 5.61821C1.6022 5.61201 1.6002 5.60541 1.6 5.59921V4.77101C1.7598 4.87161 1.9622 4.96341 2.2 5.04621ZM6.9968 5.59601C7.1982 5.59221 7.3996 5.58601 7.6 5.57681V6.57441C7.3372 6.58741 7.07 6.59461 6.8 6.59741V5.59901C6.855 5.59841 6.91 5.59761 6.965 5.59661C6.9756 5.59641 6.9862 5.59621 6.9968 5.59601ZM9.5814 6.36341C9.4936 6.37861 9.405 6.39361 9.314 6.40741C9.2618 6.41541 9.2084 6.42301 9.1548 6.43061C9.1042 6.43781 9.0516 6.44401 9.0002 6.45061V5.46241C9.2064 5.43761 9.4066 5.40941 9.6002 5.37801V6.36001C9.5938 6.36121 9.5876 6.36241 9.5814 6.36341ZM8.2272 6.53421C8.1526 6.54041 8.0756 6.54441 8 6.54981V5.55421C8.2028 5.54081 8.4032 5.52481 8.6 5.50561V6.49781C8.4838 6.51001 8.3678 6.52221 8.2484 6.53221C8.2412 6.53281 8.2344 6.53361 8.2272 6.53421ZM10.5128 6.15921C10.4132 6.18701 10.3078 6.21301 10.2002 6.23841C10.1504 6.25001 10.0996 6.26161 10.0476 6.27281C10.0322 6.27621 10.0158 6.27921 10.0002 6.28261V5.30681C10.2126 5.26501 10.4134 5.21901 10.6002 5.16861V6.13481C10.5714 6.14281 10.5424 6.15101 10.5128 6.15921ZM11.5978 4.21301C11.5794 4.34881 11.2716 4.52941 10.7222 4.69921C10.0146 4.91781 8.9074 5.11801 7.5042 5.18001C7.4324 5.18301 7.3608 5.18601 7.2876 5.18841C7.2278 5.19041 7.1678 5.19221 7.1068 5.19381C6.9412 5.19741 6.7732 5.20001 6.6 5.20001C6.4268 5.20001 6.2588 5.19741 6.0932 5.19361C6.0324 5.19221 5.9724 5.19021 5.9124 5.18821C5.839 5.18601 5.7674 5.18281 5.6958 5.17981C4.2926 5.11781 3.1852 4.91761 2.4778 4.69901C1.9328 4.53061 1.6256 4.35141 1.6028 4.21621C1.6038 4.21241 1.6038 4.20921 1.6062 4.20441C1.6198 4.20781 1.635 4.21061 1.6488 4.21401C1.727 4.23261 1.8072 4.25061 1.8888 4.26781C2.2862 4.35341 2.7266 4.42361 3.1958 4.47721C3.1974 4.47721 3.1986 4.47801 3.2 4.47801C3.2004 4.47801 3.2008 4.47781 3.201 4.47781C3.5206 4.51421 3.8522 4.54281 4.1926 4.56301C4.1952 4.56301 4.1974 4.56441 4.2 4.56441C4.2014 4.56441 4.2024 4.56361 4.2038 4.56361C4.4488 4.57801 4.697 4.58861 4.9482 4.59421C5.102 4.59801 5.253 4.60001 5.4 4.60001C5.505 4.60001 5.6126 4.59881 5.7212 4.59681C7.1744 4.57441 8.5212 4.40161 9.4584 4.13381C9.5016 4.12161 9.5438 4.10901 9.5854 4.09641C9.6108 4.08861 9.6368 4.08101 9.6614 4.07321C9.7338 4.05001 9.8032 4.02621 9.8702 4.00141C9.8818 3.99701 9.8928 3.99261 9.9044 3.98821C9.961 3.96681 10.0154 3.94461 10.0674 3.92201C10.0824 3.91541 10.0978 3.90901 10.1124 3.90241C10.1678 3.87741 10.2214 3.85181 10.271 3.82521C10.2934 3.81341 10.3128 3.80121 10.3338 3.78921C10.3578 3.77541 10.3818 3.76141 10.404 3.74721C10.4166 3.73921 10.4316 3.73161 10.4436 3.72361C11.339 3.91781 11.575 4.13021 11.5978 4.21301ZM5.4 1.00001C8.6978 1.00001 10.3658 1.51921 10.397 1.81721C10.3728 1.95241 10.0658 2.13101 9.5222 2.29901C8.8146 2.51761 7.7074 2.71781 6.3042 2.77981C6.2324 2.78281 6.1608 2.78581 6.0876 2.78821C6.0278 2.79021 5.9678 2.79201 5.9068 2.79361C5.7412 2.79741 5.5732 2.80001 5.4 2.80001C5.2268 2.80001 5.0588 2.79741 4.8932 2.79361C4.8324 2.79221 4.7724 2.79021 4.7124 2.78821C4.639 2.78601 4.5674 2.78281 4.4958 2.77981C3.0926 2.71781 1.9852 2.51761 1.2778 2.29901C0.734 2.13101 0.4272 1.95241 0.403 1.81721C0.4342 1.51921 2.1022 1.00001 5.4 1.00001ZM0.4 3.19921V2.37101C0.5598 2.47161 0.7622 2.56341 1 2.64621V3.60381C0.611 3.45801 0.4004 3.31181 0.4 3.19921ZM1.3688 5.96701C1.3718 5.97021 1.3764 5.97301 1.3794 5.97621C1.6532 6.25261 2.2202 6.46981 2.926 6.63181C2.9422 6.63561 2.9594 6.63921 2.9758 6.64301C3.0276 6.65461 3.0802 6.66601 3.1334 6.67701C3.7816 6.81501 4.5554 6.91481 5.3984 6.96421C5.399 6.96421 5.3994 6.96441 5.3998 6.96441C5.4002 6.96441 5.4004 6.96421 5.4006 6.96421C5.6714 6.98001 5.9484 6.99101 6.2312 6.99581C6.3564 6.99841 6.4796 7.00001 6.6 7.00001C6.738 7.00001 6.8796 6.99841 7.0236 6.99501C7.2852 6.98961 7.543 6.97881 7.7972 6.96401C7.7982 6.96401 7.799 6.96461 7.8 6.96461C7.8018 6.96461 7.8032 6.96361 7.805 6.96361C8.6502 6.91381 9.4432 6.81301 10.1138 6.66801C9.9686 6.74401 9.7698 6.82261 9.5222 6.89921C8.7752 7.13001 7.5822 7.34021 6.066 7.38901C6.021 7.39041 5.9766 7.39201 5.931 7.39321C5.882 7.39441 5.8322 7.39521 5.7824 7.39621C5.6566 7.39821 5.53 7.40001 5.4 7.40001C5.2268 7.40001 5.0588 7.39741 4.8932 7.39361C4.8324 7.39221 4.7724 7.39021 4.7124 7.38821C4.639 7.38601 4.5674 7.38281 4.4958 7.37981C3.0926 7.31781 1.9852 7.11761 1.2778 6.89901C0.7278 6.72901 0.42 6.54821 0.4022 6.41241C0.4244 6.33721 0.6266 6.14901 1.3688 5.96701ZM0.4 7.79921V6.97101C0.5598 7.07161 0.7622 7.16341 1 7.24621V8.20001L0.8858 8.15561L0.8834 8.15801C0.5694 8.02781 0.4004 7.90001 0.4 7.79921ZM1 9.99921V9.17101C1.1598 9.27161 1.3622 9.36341 1.6 9.44621V10.4038C1.211 10.258 1.0004 10.1118 1 9.99921ZM10.4 10.4038V9.44641C10.6378 9.36361 10.8402 9.27181 11 9.17121V9.99881C10.9998 10.1114 10.789 10.2578 10.4 10.4038ZM10.9974 8.61541C10.9756 8.75081 10.6684 8.93041 10.1222 9.09921C9.4146 9.31781 8.3074 9.51801 6.9042 9.58001C6.8324 9.58301 6.7608 9.58601 6.6876 9.58841C6.6278 9.59041 6.5678 9.59221 6.5068 9.59381C6.3412 9.59741 6.1732 9.60001 6 9.60001C5.8268 9.60001 5.6586 9.59741 5.4928 9.59361C5.4326 9.59221 5.3732 9.59021 5.3138 9.58821C5.24 9.58581 5.168 9.58281 5.0958 9.57981C3.6926 9.51781 2.5854 9.31761 1.8778 9.09901C1.3488 8.93561 1.0432 8.76201 1.0048 8.62801C1.0644 8.64881 1.1262 8.66901 1.1896 8.68881C1.196 8.69081 1.2024 8.69281 1.2088 8.69461C1.2628 8.71121 1.318 8.72721 1.3746 8.74281C1.396 8.74881 1.4176 8.75481 1.4394 8.76061C1.4714 8.76921 1.5042 8.77741 1.537 8.78581C2.2654 8.97241 3.1952 9.10461 4.199 9.16401C4.1994 9.16401 4.1996 9.16421 4.2 9.16421C4.2002 9.16421 4.2004 9.16401 4.2006 9.16401C4.5106 9.18241 4.8272 9.19381 5.1472 9.19761C5.2324 9.19921 5.317 9.20001 5.4 9.20001C5.5102 9.20001 5.623 9.19861 5.7372 9.19661C6.029 9.19181 6.317 9.18101 6.5986 9.16421C6.5992 9.16421 6.5996 9.16461 6.6002 9.16461C6.6012 9.16461 6.6018 9.16401 6.6028 9.16401C6.9458 9.14341 7.2778 9.11401 7.5968 9.07741C7.598 9.07741 7.599 9.07801 7.6002 9.07801C7.6046 9.07801 7.6082 9.07581 7.6126 9.07541C7.9678 9.03441 8.3046 8.984 8.6172 8.92541C8.6816 8.91361 8.745 8.90141 8.8078 8.88881C8.8218 8.88601 8.8358 8.88321 8.8498 8.88021C9.4404 8.75901 9.9516 8.60201 10.3024 8.40741C10.3216 8.39701 10.3396 8.38621 10.3578 8.37561C10.38 8.36241 10.4012 8.34901 10.4218 8.33541C10.441 8.32301 10.4632 8.31101 10.4808 8.29841C10.8756 8.43921 10.9844 8.56521 10.9974 8.61541ZM11 6.00381V5.04641C11.2378 4.96361 11.4402 4.87181 11.6 4.77121V5.59881C11.5998 5.71141 11.389 5.85781 11 6.00381Z" fill="#B3B3B3"/>
</svg>
