<svg width="48" height="36" viewBox="0 0 48 36" fill="none" xmlns="http://www.w3.org/2000/svg">
<path d="M44 0H4.00003C1.79494 0 0 1.79391 0 4.00003V32.0001C0 34.2061 1.79494 36 4.00003 36H44.0001C46.2051 36 48 34.2061 48 32V4.00003C48 1.79391 46.2051 0 44 0ZM46 32C46 33.1025 45.1035 33.9999 44.0001 33.9999H4.00003C2.8965 33.9999 2.00006 33.1025 2.00006 32V30H46V32V32ZM46 28H1.99997V24H45.9999V28H46ZM46 22H1.99997V4.00003C1.99997 2.89753 2.8965 2.00006 3.99994 2.00006H44C45.1035 2.00006 45.9999 2.89753 45.9999 4.00003V22H46Z" fill="white"/>
<path d="M9.00003 7.99997C9.55081 7.99997 10.0001 8.44819 10.0001 9C10.0001 9.55275 10.4473 10 11.0001 10C11.5528 10 12.0001 9.55275 12.0001 9C12.0001 7.34569 10.6544 6 9.00012 6C7.34581 6 6.00012 7.34569 6.00012 9V13C6.00012 14.6543 7.34581 16 9.00012 16C10.6544 16 12.0001 14.6543 12.0001 13V12C12.0001 11.4472 11.5528 11 11.0001 11H10.0001C9.44731 11 9.00003 11.4472 9.00003 12C9.00003 12.5527 9.44731 13 10.0001 13C10.0001 13.5517 9.55081 14.0001 9.00003 14.0001C8.44925 14.0001 8 13.5518 8 13V9C8 8.44828 8.44925 7.99997 9.00003 7.99997Z" fill="white"/>
<path d="M28 6H19C18.4473 6 18 6.44728 18 7.00003V15C18 15.5527 18.4473 16 19 16C19.5528 16 20.0001 15.5527 20.0001 15V12H22C22.5528 12 23.0001 11.5527 23.0001 11C23.0001 10.4472 22.5528 9.99994 22 9.99994H20.0001V7.99997H24V15C24 15.5527 24.4473 16 25 16C25.5528 16 26.0001 15.5527 26.0001 15V7.99997H28C28.5528 7.99997 29.0001 7.55269 29.0001 6.99994C29 6.44728 28.5528 6 28 6Z" fill="white"/>
<path d="M15 6C14.4473 6 14 6.44728 14 7.00003V15C14 15.5527 14.4473 16 15 16C15.5528 16 16.0001 15.5527 16.0001 15V7.00003C16.0001 6.44728 15.5528 6 15 6Z" fill="white"/>
</svg>
