<svg width="114" height="29" viewBox="0 0 114 29" fill="none" xmlns="http://www.w3.org/2000/svg">
<path d="M5.38281 28H0.337891V2.79297H5.38281V15.3965L14.7695 2.79297H20.5L12.5371 13.4277L20.5 28H14.7695L9.23242 17.8047L5.38281 22.9551V28ZM39.3262 18.4199C39.3262 19.8262 39.0742 21.1387 38.5703 22.3574C38.0664 23.5645 37.3809 24.6133 36.5137 25.5039C35.6465 26.3828 34.627 27.0801 33.4551 27.5957C32.2949 28.0996 31.0469 28.3516 29.7109 28.3516C28.3867 28.3516 27.1387 28.0996 25.9668 27.5957C24.8066 27.0801 23.7871 26.3828 22.9082 25.5039C22.041 24.6133 21.3555 23.5645 20.8516 22.3574C20.3477 21.1387 20.0957 19.8262 20.0957 18.4199C20.0957 16.9902 20.3477 15.666 20.8516 14.4473C21.3555 13.2285 22.041 12.1797 22.9082 11.3008C23.7871 10.4102 24.8066 9.71289 25.9668 9.20898C27.1387 8.70508 28.3867 8.45312 29.7109 8.45312C31.0469 8.45312 32.2949 8.69336 33.4551 9.17383C34.627 9.64258 35.6465 10.3164 36.5137 11.1953C37.3809 12.0625 38.0664 13.1113 38.5703 14.3418C39.0742 15.5605 39.3262 16.9199 39.3262 18.4199ZM34.4922 18.4199C34.4922 17.6465 34.3633 16.9492 34.1055 16.3281C33.8594 15.6953 33.5195 15.1562 33.0859 14.7109C32.6523 14.2539 32.1426 13.9082 31.5566 13.6738C30.9824 13.4277 30.3672 13.3047 29.7109 13.3047C29.0547 13.3047 28.4336 13.4277 27.8477 13.6738C27.2734 13.9082 26.7695 14.2539 26.3359 14.7109C25.9141 15.1562 25.5801 15.6953 25.334 16.3281C25.0879 16.9492 24.9648 17.6465 24.9648 18.4199C24.9648 19.1465 25.0879 19.8203 25.334 20.4414C25.5801 21.0625 25.9141 21.6016 26.3359 22.0586C26.7695 22.5156 27.2734 22.8789 27.8477 23.1484C28.4336 23.4062 29.0547 23.5352 29.7109 23.5352C30.3672 23.5352 30.9824 23.4121 31.5566 23.166C32.1426 22.9199 32.6523 22.5742 33.0859 22.1289C33.5195 21.6836 33.8594 21.1445 34.1055 20.5117C34.3633 19.8789 34.4922 19.1816 34.4922 18.4199ZM46.8145 28H41.9805V1.68555H46.8145V28ZM68.6816 18.4199C68.6816 19.8262 68.4297 21.1387 67.9258 22.3574C67.4219 23.5645 66.7363 24.6133 65.8691 25.5039C65.002 26.3828 63.9824 27.0801 62.8105 27.5957C61.6504 28.0996 60.4023 28.3516 59.0664 28.3516C57.7422 28.3516 56.4941 28.0996 55.3223 27.5957C54.1621 27.0801 53.1426 26.3828 52.2637 25.5039C51.3965 24.6133 50.7109 23.5645 50.207 22.3574C49.7031 21.1387 49.4512 19.8262 49.4512 18.4199C49.4512 16.9902 49.7031 15.666 50.207 14.4473C50.7109 13.2285 51.3965 12.1797 52.2637 11.3008C53.1426 10.4102 54.1621 9.71289 55.3223 9.20898C56.4941 8.70508 57.7422 8.45312 59.0664 8.45312C60.4023 8.45312 61.6504 8.69336 62.8105 9.17383C63.9824 9.64258 65.002 10.3164 65.8691 11.1953C66.7363 12.0625 67.4219 13.1113 67.9258 14.3418C68.4297 15.5605 68.6816 16.9199 68.6816 18.4199ZM63.8477 18.4199C63.8477 17.6465 63.7188 16.9492 63.4609 16.3281C63.2148 15.6953 62.875 15.1562 62.4414 14.7109C62.0078 14.2539 61.498 13.9082 60.9121 13.6738C60.3379 13.4277 59.7227 13.3047 59.0664 13.3047C58.4102 13.3047 57.7891 13.4277 57.2031 13.6738C56.6289 13.9082 56.125 14.2539 55.6914 14.7109C55.2695 15.1562 54.9355 15.6953 54.6895 16.3281C54.4434 16.9492 54.3203 17.6465 54.3203 18.4199C54.3203 19.1465 54.4434 19.8203 54.6895 20.4414C54.9355 21.0625 55.2695 21.6016 55.6914 22.0586C56.125 22.5156 56.6289 22.8789 57.2031 23.1484C57.7891 23.4062 58.4102 23.5352 59.0664 23.5352C59.7227 23.5352 60.3379 23.4121 60.9121 23.166C61.498 22.9199 62.0078 22.5742 62.4414 22.1289C62.875 21.6836 63.2148 21.1445 63.4609 20.5117C63.7188 19.8789 63.8477 19.1816 63.8477 18.4199ZM76.1348 28H71.3359V9.17383H72.4961L74.0781 11.4062C74.8516 10.7031 75.7305 10.1641 76.7148 9.78906C77.6992 9.40234 78.7188 9.20898 79.7734 9.20898H84.0098V13.9902H79.7734C79.2695 13.9902 78.7949 14.084 78.3496 14.2715C77.9043 14.459 77.5176 14.7168 77.1895 15.0449C76.8613 15.373 76.6035 15.7598 76.416 16.2051C76.2285 16.6504 76.1348 17.125 76.1348 17.6289V28ZM105.086 18.4199C105.086 19.8965 104.834 21.2441 104.33 22.4629C103.826 23.6816 103.141 24.7305 102.273 25.6094C101.406 26.4766 100.387 27.1504 99.2148 27.6309C98.0547 28.1113 96.8066 28.3516 95.4707 28.3516C94.1465 28.3516 92.8984 28.1055 91.7266 27.6133C90.5664 27.1211 89.5469 26.4355 88.668 25.5566C87.8008 24.6777 87.1152 23.6348 86.6113 22.4277C86.1074 21.209 85.8555 19.873 85.8555 18.4199V1.68555H90.6719V10.4746C90.9297 10.1465 91.2402 9.85352 91.6035 9.5957C91.9785 9.33789 92.377 9.12695 92.7988 8.96289C93.2324 8.79883 93.6777 8.67578 94.1348 8.59375C94.5918 8.5 95.0371 8.45312 95.4707 8.45312C96.8066 8.45312 98.0547 8.70508 99.2148 9.20898C100.387 9.70117 101.406 10.3926 102.273 11.2832C103.141 12.1738 103.826 13.2285 104.33 14.4473C104.834 15.6543 105.086 16.9785 105.086 18.4199ZM100.252 18.4199C100.252 17.6934 100.123 17.0195 99.8652 16.3984C99.6191 15.7656 99.2793 15.2207 98.8457 14.7637C98.4121 14.3066 97.9023 13.9492 97.3164 13.6914C96.7422 13.4336 96.127 13.3047 95.4707 13.3047C94.8145 13.3047 94.1934 13.4512 93.6074 13.7441C93.0332 14.0254 92.5293 14.4062 92.0957 14.8867C91.6621 15.3555 91.3223 15.9004 91.0762 16.5215C90.8301 17.1309 90.707 17.7637 90.707 18.4199C90.707 19.1465 90.8301 19.8203 91.0762 20.4414C91.3223 21.0625 91.6621 21.6016 92.0957 22.0586C92.5293 22.5156 93.0332 22.8789 93.6074 23.1484C94.1934 23.4062 94.8145 23.5352 95.4707 23.5352C96.127 23.5352 96.7422 23.4062 97.3164 23.1484C97.9023 22.8789 98.4121 22.5156 98.8457 22.0586C99.2793 21.6016 99.6191 21.0625 99.8652 20.4414C100.123 19.8203 100.252 19.1465 100.252 18.4199ZM113.418 4.05859C113.418 4.50391 113.33 4.91992 113.154 5.30664C112.99 5.69336 112.762 6.0332 112.469 6.32617C112.176 6.60742 111.83 6.83594 111.432 7.01172C111.045 7.17578 110.629 7.25781 110.184 7.25781C109.738 7.25781 109.316 7.17578 108.918 7.01172C108.531 6.83594 108.191 6.60742 107.898 6.32617C107.617 6.0332 107.389 5.69336 107.213 5.30664C107.049 4.91992 106.967 4.50391 106.967 4.05859C106.967 3.625 107.049 3.21484 107.213 2.82812C107.389 2.42969 107.617 2.08984 107.898 1.80859C108.191 1.51562 108.531 1.28711 108.918 1.12305C109.316 0.947266 109.738 0.859375 110.184 0.859375C110.629 0.859375 111.045 0.947266 111.432 1.12305C111.83 1.28711 112.176 1.51562 112.469 1.80859C112.762 2.08984 112.99 2.42969 113.154 2.82812C113.33 3.21484 113.418 3.625 113.418 4.05859ZM112.592 28H107.758V9.17383H112.592V28Z" fill="white"/>
</svg>
