<svg width="70" height="70" viewBox="0 0 70 70" fill="none" xmlns="http://www.w3.org/2000/svg">
<path d="M46.7515 44.8926C45.0929 44.8926 43.7436 43.7248 43.7436 42.2894C43.7436 40.8538 45.0929 39.686 46.7515 39.686C48.41 39.686 49.7593 40.8538 49.7593 42.2894C49.7593 43.0443 50.3715 43.6565 51.1264 43.6565C51.8814 43.6565 52.4936 43.0443 52.4936 42.2894C52.4936 39.784 50.6269 37.6774 48.1186 37.1057V36.3946C48.1186 35.6396 47.5064 35.0274 46.7515 35.0274C45.9965 35.0274 45.3843 35.6396 45.3843 36.3946V37.1057C42.876 37.6774 41.0093 39.784 41.0093 42.2894C41.0093 45.2325 43.5852 47.627 46.7515 47.627C48.41 47.627 49.7593 48.7948 49.7593 50.2304C49.7593 51.6659 48.41 52.8338 46.7515 52.8338C45.0929 52.8338 43.7436 51.6659 43.7436 50.2304C43.7436 49.4754 43.1314 48.8632 42.3765 48.8632C41.6215 48.8632 41.0093 49.4754 41.0093 50.2304C41.0093 52.7357 42.876 54.8423 45.3843 55.414V56.0047C45.3843 56.7596 45.9965 57.3719 46.7515 57.3719C47.5064 57.3719 48.1186 56.7596 48.1186 56.0047V55.414C50.6269 54.8423 52.4936 52.7357 52.4936 50.2304C52.4936 47.2871 49.9177 44.8926 46.7515 44.8926Z" fill="#F63D3D"/>
<path d="M61.7259 36.7603C59.9399 33.9774 57.4238 31.7505 54.4495 30.3207C53.7687 29.9934 52.9519 30.28 52.6248 30.9606C52.2977 31.6412 52.5841 32.4579 53.2647 32.7851C58.4478 35.2766 61.7967 40.6003 61.7967 46.3477C61.7967 48.807 61.1905 51.2459 60.0438 53.4012C59.6892 54.0677 59.942 54.8956 60.6086 55.2503C60.8131 55.3591 61.033 55.4108 61.2495 55.4108C61.7387 55.4108 62.2119 55.1475 62.4577 54.6855C63.8141 52.1365 64.5311 49.2533 64.5311 46.3477C64.5311 42.9352 63.561 39.6199 61.7259 36.7603Z" fill="#F63D3D"/>
<path d="M48.9005 28.5744L48.8085 28.5743C48.0535 28.5743 47.4413 29.1864 47.4413 29.9415C47.4413 30.6966 48.0535 31.3087 48.8085 31.3087L48.8876 31.3088C48.8898 31.3088 48.8919 31.3088 48.8942 31.3088C49.6463 31.3088 50.2577 30.701 50.2613 29.948C50.2647 29.193 49.6555 28.578 48.9005 28.5744Z" fill="#F63D3D"/>
<path d="M40.2508 59.9103C35.0678 57.4186 31.7189 52.0949 31.7189 46.3477C31.7189 43.8884 32.3251 41.4495 33.4718 39.2943C33.8264 38.6278 33.5736 37.7998 32.907 37.4451C32.2406 37.0905 31.4124 37.3433 31.0579 38.0099C29.7015 40.559 28.9846 43.4422 28.9846 46.3477C28.9846 49.7602 29.9546 53.0753 31.7897 55.9351C33.5757 58.718 36.0919 60.9449 39.0662 62.3748C39.2572 62.4667 39.459 62.51 39.6576 62.51C40.1668 62.51 40.6554 62.2244 40.8908 61.7349C41.2177 61.0544 40.9314 60.2375 40.2508 59.9103Z" fill="#F63D3D"/>
<path d="M44.7072 61.3867L44.6281 61.3864C43.8695 61.3851 43.2581 61.992 43.2547 62.7472C43.2512 63.5023 43.8607 64.1173 44.6156 64.1209L44.7072 64.1212C45.4622 64.1212 46.0744 63.5089 46.0744 62.7539C46.0744 61.999 45.4622 61.3867 44.7072 61.3867Z" fill="#F63D3D"/>
<path d="M52.966 23.9487C52.7996 23.5522 52.5957 23.1786 52.3585 22.832H55.9179C59.3856 22.832 62.2069 20.0107 62.2069 16.5429C62.2069 13.0752 59.3856 10.2539 55.9179 10.2539H44.9694C45.6655 9.2419 46.0741 8.01759 46.0741 6.69921C46.0741 3.23148 43.2528 0.410156 39.7851 0.410156H6.28905C2.82132 0.410156 0 3.23148 0 6.69921C0 10.1669 2.82132 12.9883 6.28905 12.9883H17.2375C16.5414 14.0003 16.1328 15.2246 16.1328 16.5429C16.1328 17.8613 16.5413 19.0856 17.2375 20.0976H13.6718C10.2041 20.0976 7.3828 22.9189 7.3828 26.3867C7.3828 28.3783 8.3144 30.1555 9.76375 31.3085C8.3144 32.4616 7.3828 34.2388 7.3828 36.2304C7.3828 38.222 8.3144 39.9992 9.76375 41.1523C8.3144 42.3054 7.3828 44.0826 7.3828 46.0742C7.3828 48.0657 8.3144 49.8429 9.76375 50.996C8.3144 52.1491 7.3828 53.9263 7.3828 55.9179C7.3828 59.3856 10.2041 62.2069 13.6718 62.2069H29.7841C34.0287 66.7469 40.067 69.5899 46.7579 69.5899C59.5736 69.5899 70 59.1634 70 46.3477C70 35.6814 62.7772 26.6715 52.966 23.9487ZM55.9179 12.9883C57.878 12.9883 59.4725 14.5829 59.4725 16.5429C59.4725 18.5029 57.878 20.0976 55.9179 20.0976H47.1679H22.4218C20.4617 20.0976 18.8672 18.5029 18.8672 16.5429C18.8672 14.5829 20.4617 12.9883 22.4218 12.9883H55.9179ZM6.28905 10.2539C4.32892 10.2539 2.73437 8.65921 2.73437 6.69921C2.73437 4.73921 4.32892 3.14453 6.28905 3.14453H39.7851C41.7452 3.14453 43.3398 4.73921 43.3398 6.69921C43.3398 8.65921 41.7452 10.2539 39.7851 10.2539H6.28905ZM13.6718 22.832H47.1679C47.7186 22.832 48.2459 22.96 48.719 23.1891C48.0723 23.1348 47.4185 23.1056 46.7579 23.1056C40.3396 23.1056 34.5209 25.7209 30.3108 29.9414H13.6718C11.7119 29.9414 10.1172 28.3467 10.1172 26.3867C10.1172 24.4267 11.7119 22.832 13.6718 22.832ZM13.6718 32.6757H27.9747C26.4226 34.8021 25.2226 37.2004 24.4606 39.7851H13.6718C11.7117 39.7851 10.1172 38.1905 10.1172 36.2304C10.1172 34.2704 11.7117 32.6757 13.6718 32.6757ZM13.6718 42.5195H23.8328C23.6254 43.7654 23.5157 45.0438 23.5157 46.3477C23.5157 47.4614 23.5962 48.5565 23.7484 49.6288H13.6718C11.7117 49.6288 10.1172 48.0343 10.1172 46.0742C10.1172 44.114 11.7117 42.5195 13.6718 42.5195ZM13.6718 59.4726C11.7117 59.4726 10.1172 57.878 10.1172 55.9179C10.1172 53.9578 11.7117 52.3632 13.6718 52.3632H24.3066C24.9965 54.9353 26.1172 57.3324 27.5869 59.4726H13.6718ZM46.7579 66.8555C35.4499 66.8555 26.2501 57.6557 26.2501 46.3477C26.2501 35.0397 35.4499 25.8399 46.7579 25.8399C58.0658 25.8399 67.2656 35.0397 67.2656 46.3477C67.2656 57.6557 58.0658 66.8555 46.7579 66.8555Z" fill="#F63D3D"/>
</svg>
