<svg width="48" height="36" viewBox="0 0 48 36" fill="none" xmlns="http://www.w3.org/2000/svg">
<path d="M47 0H7.00003C6.44728 0 6 0.447281 6 1.00003V6H1.00003C0.447281 6 0 6.44728 0 7.00003V32.0001C0 34.2061 1.79494 36 4.00003 36H44.0001C46.2051 36 48 34.2061 48 32V1.00003C48 0.447281 47.5527 0 47 0ZM6 32C6 33.1025 5.10347 33.9999 4.00003 33.9999C2.8965 33.9999 2.00006 33.1025 2.00006 32V7.99997H6V32ZM46 32C46 33.1025 45.1035 33.9999 44.0001 33.9999H7.46287C7.80469 33.4111 7.99997 32.7275 7.99997 32V1.99997H45.9999V32H46Z" fill="white"/>
<path d="M11 16C11.5527 16 12 15.5528 12 15V7.99997H13C13.5508 7.99997 14.0001 8.44819 14.0001 9V15C14.0001 15.5528 14.4473 16 15.0001 16C15.5528 16 16.0001 15.5528 16.0001 15V9C16.0001 7.34569 14.6544 6 13.0001 6H11.0002C10.4474 6 10.0001 6.44728 10.0001 7.00003V15C10 15.5528 10.4473 16 11 16Z" fill="white"/>
<path d="M19 16H23.0001C23.5528 16 24.0001 15.5528 24.0001 15C24.0001 14.4473 23.5528 14 23.0001 14H20.0001V12H22C22.5528 12 23.0001 11.5527 23.0001 11C23.0001 10.4472 22.5528 9.99994 22 9.99994H20.0001V7.99997H23.0001C23.5528 7.99997 24.0001 7.55269 24.0001 6.99994C24.0001 6.44719 23.5528 5.99991 23.0001 5.99991H19C18.4473 5.99991 18 6.44719 18 6.99994V15C18 15.5528 18.4473 16 19 16Z" fill="white"/>
<path d="M28.1679 15.5547C28.3534 15.8331 28.666 16 28.9999 16C29.3339 16 29.6464 15.8331 29.832 15.5547L30.9999 13.8027L32.1679 15.5547C32.3534 15.8331 32.6659 16 32.9999 16C33.3338 16 33.6464 15.8331 33.8319 15.5547L35.8319 12.5547C35.9413 12.3907 35.9999 12.1973 35.9999 12V7.00003C35.9999 6.44728 35.5526 6 34.9999 6C34.4471 6 33.9998 6.44728 33.9998 7.00003V11.6973L32.9998 13.1973L31.9998 11.6973V7.00003C31.9998 6.44728 31.5525 6 30.9997 6C30.447 6 29.9997 6.44728 29.9997 7.00003V11.6973L28.9997 13.1973L27.9996 11.6973V7.00003C27.9996 6.44728 27.5524 6 26.9996 6C26.4469 6 25.9996 6.44728 25.9996 7.00003V12C25.9996 12.1973 26.0582 12.3907 26.1676 12.5547L28.1679 15.5547Z" fill="white"/>
<path d="M41 14H39C38.4473 14 38 14.4473 38 15C38 15.5528 38.4473 16 39 16H41C42.6543 16 44 14.6543 44 13C44 11.3457 42.6543 10 41 10C40.4492 10 40 9.55181 40 9C40 8.44819 40.4492 7.99997 41 7.99997H43C43.5527 7.99997 44 7.55269 44 6.99994C44 6.44719 43.5527 5.99991 43 5.99991H41C39.3457 5.99991 38 7.3456 38 8.99991C38 10.6542 39.3457 11.9999 41 11.9999C41.5508 11.9999 42 12.4481 42 12.9999C42 13.5518 41.5508 14 41 14Z" fill="white"/>
<path d="M11 30H24.9999C25.5527 30 26 29.5527 26 29V19C26 18.4473 25.5527 18 24.9999 18H11C10.4472 18 9.99994 18.4473 9.99994 19V29.0001C10 29.5527 10.4473 30 11 30ZM12 20H24V27.9999H12V20Z" fill="white"/>
<path d="M43 20H29C28.4472 20 27.9999 20.4473 27.9999 21C27.9999 21.5527 28.4472 22 29 22H42.9999C43.5527 22 44 21.5527 44 21C44 20.4473 43.5528 20 43 20Z" fill="white"/>
<path d="M43 24H29C28.4472 24 27.9999 24.4473 27.9999 25C27.9999 25.5528 28.4472 26.0001 29 26.0001H42.9999C43.5527 26.0001 44 25.5528 44 25C44 24.4473 43.5528 24 43 24Z" fill="white"/>
<path d="M43 28H29C28.4472 28 27.9999 28.4473 27.9999 29.0001C27.9999 29.5528 28.4472 30.0001 29 30.0001H42.9999C43.5527 30.0001 44 29.5528 44 29.0001C44 28.4473 43.5528 28 43 28Z" fill="white"/>
</svg>
