<svg width="48" height="32" viewBox="0 0 48 32" fill="none" xmlns="http://www.w3.org/2000/svg">
<path fill-rule="evenodd" clip-rule="evenodd" d="M0.9375 19.6518C1.45547 19.6518 1.875 19.2319 1.875 18.7143V4.91836C1.875 3.24023 3.24023 1.875 4.91836 1.875H43.0816C44.7598 1.875 46.125 3.24023 46.125 4.91836C46.125 5.43574 46.5445 5.85586 47.0625 5.85586C47.5805 5.85586 48 5.43574 48 4.91836C48 2.20605 45.7939 0 43.0816 0H4.91836C2.20605 0 0 2.20605 0 4.91836V18.7143C0 19.2319 0.419531 19.6518 0.9375 19.6518Z" fill="white"/>
<path fill-rule="evenodd" clip-rule="evenodd" d="M47.0625 11.4809C46.5445 11.4809 46.125 11.9004 46.125 12.4184V26.2143C46.125 27.8921 44.7598 29.2573 43.0816 29.2573H4.91836C3.24023 29.2573 1.875 27.8927 1.875 26.2143C1.875 25.6969 1.45547 25.2768 0.9375 25.2768C0.419531 25.2768 0 25.6969 0 26.2143C0 28.9263 2.20605 31.1323 4.91836 31.1323H43.0816C45.7939 31.1323 48 28.9263 48 26.2143V12.4184C48 11.9004 47.5805 11.4809 47.0625 11.4809V11.4809Z" fill="white"/>
<path fill-rule="evenodd" clip-rule="evenodd" d="M42.2488 5.37393H5.75159C5.23391 5.37393 4.81409 5.79346 4.81409 6.31143V24.8212C4.81409 25.3389 5.23391 25.7587 5.75159 25.7587H42.2488C42.7664 25.7587 43.1863 25.3389 43.1863 24.8212V6.31143C43.1863 5.79346 42.7664 5.37393 42.2488 5.37393ZM6.68909 7.24893H16.9799V23.8837H6.68909V7.24893ZM18.8549 7.24893H29.1451V23.8837H18.8549V7.24893ZM41.3113 23.8837H31.0201V7.24893H41.3113V23.8837Z" fill="white"/>
<path fill-rule="evenodd" clip-rule="evenodd" d="M14.6929 9.8707H8.97595C8.45798 9.8707 8.03845 10.2905 8.03845 10.8082V11.6716C8.03845 12.189 8.45798 12.6091 8.97595 12.6091C9.46843 12.6091 9.87273 12.2285 9.91052 11.7457H12.6744C11.2787 13.5844 9.30291 16.8026 9.27566 20.3171C9.27185 20.8351 9.68845 21.2575 10.2058 21.2616H10.2132C10.7279 21.2616 11.1469 20.8468 11.1507 20.3314C11.1855 15.7731 15.3196 11.5078 15.3609 11.4662C15.6263 11.197 15.7037 10.795 15.5578 10.4464C15.4119 10.0977 15.0709 9.8707 14.6929 9.8707V9.8707Z" fill="white"/>
<path fill-rule="evenodd" clip-rule="evenodd" d="M26.8588 9.8707H21.1412C20.6236 9.8707 20.2037 10.2905 20.2037 10.8082V11.6716C20.2037 12.189 20.6236 12.6091 21.1412 12.6091C21.6343 12.6091 22.0383 12.2285 22.0758 11.7457H24.8403C23.444 13.5844 21.4685 16.8026 21.4412 20.3171C21.4371 20.8351 21.854 21.2575 22.3717 21.2616H22.3793C22.8932 21.2616 23.3121 20.8468 23.3162 20.3314C23.3511 15.7731 27.4858 11.5078 27.5268 11.4662C27.7916 11.197 27.8696 10.795 27.7237 10.4464C27.5775 10.0977 27.2367 9.8707 26.8588 9.8707V9.8707Z" fill="white"/>
<path fill-rule="evenodd" clip-rule="evenodd" d="M33.307 12.6091C33.7998 12.6091 34.2038 12.2285 34.2416 11.7457H37.0055C35.6098 13.5844 33.634 16.8026 33.607 20.3171C33.6032 20.8351 34.0195 21.2575 34.5375 21.2616H34.5445C35.0593 21.2616 35.4782 20.8468 35.4817 20.3314C35.5169 15.7731 39.651 11.5078 39.692 11.4662C39.9577 11.197 40.0348 10.795 39.8891 10.4464C39.7435 10.0977 39.4019 9.8707 39.0246 9.8707H33.3073C32.7893 9.8707 32.3698 10.2905 32.3698 10.8082V11.6716C32.3695 12.1895 32.7893 12.6091 33.307 12.6091V12.6091Z" fill="white"/>
<path fill-rule="evenodd" clip-rule="evenodd" d="M0.9375 23.4018C1.45371 23.4018 1.875 22.9805 1.875 22.4643C1.875 21.9478 1.45371 21.5268 0.9375 21.5268C0.421289 21.5268 0 21.9478 0 22.4643C0 22.9805 0.421289 23.4018 0.9375 23.4018Z" fill="white"/>
<path fill-rule="evenodd" clip-rule="evenodd" d="M47.0625 7.73087C46.5463 7.73087 46.125 8.15157 46.125 8.66837C46.125 9.18458 46.5463 9.60587 47.0625 9.60587C47.5787 9.60587 48 9.18458 48 8.66837C48 8.15157 47.5787 7.73087 47.0625 7.73087Z" fill="white"/>
</svg>
