<svg width="80" height="80" viewBox="0 0 80 80" fill="none" xmlns="http://www.w3.org/2000/svg">
<path d="M40 0C17.9443 0 0 17.9443 0 40C0 62.0556 17.9443 80 40 80C62.0574 80 80 62.0556 80 40C80 17.9443 62.0574 0 40 0ZM40 76.5217C19.8609 76.5217 3.47826 60.1391 3.47826 40C3.47826 19.8609 19.8609 3.47826 40 3.47826C60.1374 3.47826 76.5217 19.8609 76.5217 40C76.5217 60.1391 60.1374 76.5217 40 76.5217Z" fill="#F63D3D"/>
<path d="M31.3044 33.0435C31.3044 30.167 28.9636 27.8261 26.087 27.8261C23.2105 27.8261 20.8696 30.167 20.8696 33.0435C20.8696 35.92 23.2105 38.2609 26.087 38.2609C28.9636 38.2609 31.3044 35.92 31.3044 33.0435ZM24.3479 33.0435C24.3479 32.0852 25.1288 31.3044 26.087 31.3044C27.0453 31.3044 27.8262 32.0852 27.8262 33.0435C27.8262 34.0017 27.0453 34.7826 26.087 34.7826C25.1288 34.7826 24.3479 34.0017 24.3479 33.0435Z" fill="#F63D3D"/>
<path d="M53.9131 27.8261C51.0365 27.8261 48.6957 30.167 48.6957 33.0435C48.6957 35.92 51.0365 38.2609 53.9131 38.2609C56.7896 38.2609 59.1304 35.92 59.1304 33.0435C59.1304 30.167 56.7896 27.8261 53.9131 27.8261ZM53.9131 34.7826C52.9531 34.7826 52.1739 34.0017 52.1739 33.0435C52.1739 32.0852 52.9531 31.3044 53.9131 31.3044C54.8731 31.3044 55.6522 32.0852 55.6522 33.0435C55.6522 34.0017 54.8731 34.7826 53.9131 34.7826Z" fill="#F63D3D"/>
<path d="M40 48.6957C33.5165 48.6957 27.3391 51.4417 23.0521 56.2313C22.4121 56.9478 22.473 58.047 23.1878 58.687C23.9043 59.3287 25.0034 59.2661 25.6434 58.5513C29.2713 54.4974 34.5043 52.1739 40 52.1739C45.4956 52.1739 50.7287 54.4974 54.3565 58.5513C54.6991 58.9357 55.1756 59.1304 55.6521 59.1304C56.0643 59.1304 56.4817 58.9844 56.8121 58.687C57.5269 58.047 57.5878 56.9478 56.9478 56.2313C52.6608 51.4435 46.4852 48.6957 40 48.6957Z" fill="#F63D3D"/>
</svg>
