<svg width="80" height="80" viewBox="0 0 80 80" fill="none" xmlns="http://www.w3.org/2000/svg">
<g clip-path="url(#clip0)">
<path d="M76.1859 46.8584H74.9887V36.0748C74.9887 34.3677 74.139 32.8561 72.8414 31.9377V30.4694C72.8414 28.3395 71.1087 26.6069 68.9789 26.6069H68.085L71.5051 21.5881C72.6515 19.9059 72.2156 17.6045 70.5334 16.458L47.3254 0.64235C46.5106 0.086881 45.5284 -0.118119 44.559 0.0657872C43.5901 0.249381 42.7506 0.799225 42.1953 1.61422L22.1639 31.0084H16.5897L17.9345 17.3944C17.9497 17.2409 18.0493 17.108 18.1884 17.0556C19.9211 16.4023 21.4226 15.1824 22.4164 13.6205C22.4947 13.4975 22.6423 13.4272 22.7951 13.4427L31.5381 14.3064C32.165 14.3672 32.7226 13.9106 32.7845 13.2841C32.8464 12.6575 32.3887 12.0995 31.7622 12.0377L23.0192 11.1739C22.0043 11.0745 21.0365 11.5422 20.4928 12.3966C19.7622 13.545 18.6581 14.4419 17.3842 14.9222C16.4253 15.2838 15.7668 16.145 15.6656 17.1702L14.2987 31.0083H12.8451L14.972 9.47641C15.0486 8.70141 15.7403 8.13204 16.5162 8.20969L34.184 9.95501C34.8106 10.0155 35.3686 9.55922 35.4304 8.93266C35.4923 8.3061 35.0347 7.74813 34.4081 7.68626L16.7403 5.94094C14.7147 5.7411 12.9033 7.22626 12.7031 9.25219L10.9887 26.6069H8.06919C5.9395 26.6069 4.20669 28.3395 4.20669 30.4694V31.4709C2.46435 32.2731 1.25122 34.0344 1.25122 36.0748V74.9334C1.25122 77.7272 3.52403 80 6.31794 80H69.9222C72.7159 80 74.9887 77.7272 74.9887 74.9334V64.15H76.1859C77.599 64.15 78.7486 63.0005 78.7486 61.5875V49.4211C78.7487 48.008 77.599 46.8584 76.1859 46.8584ZM68.9789 28.8869C69.8517 28.8867 70.5615 29.5967 70.5615 30.4695V31.0503C70.3519 31.0238 70.1389 31.0086 69.9222 31.0086H65.0854L66.5312 28.8869H68.9789ZM44.0792 2.89797C44.2917 2.58626 44.6128 2.37594 44.9834 2.30563C45.072 2.28891 45.1609 2.28047 45.2492 2.28047C45.53 2.28047 45.8043 2.36454 46.0415 2.5261L69.2495 18.3417C69.8929 18.7803 70.0598 19.6606 69.6214 20.3041L62.3267 31.0081H60.5761L64.1525 25.7602C64.7325 24.9091 64.7803 23.8259 64.2769 22.9333C63.6078 21.7473 63.3365 20.3509 63.5131 19.0011C63.6444 17.9969 63.2025 17.0166 62.36 16.4425L50.329 8.24376C49.4864 7.66954 48.4123 7.61688 47.5258 8.10641C46.3344 8.76423 44.9354 9.02251 43.587 8.83376C42.587 8.69344 41.5728 9.14501 41.0014 9.98329L26.6734 31.0083H24.9228L44.0792 2.89797ZM44.5812 22.2559C39.617 22.2559 35.542 26.1267 35.21 31.0083H29.432L42.885 11.2672C42.8851 11.2672 42.8851 11.2672 42.8851 11.2672C42.9615 11.1549 43.0883 11.088 43.2184 11.088C43.2358 11.088 43.2531 11.0892 43.2704 11.0916C45.1045 11.3481 47.0069 10.9972 48.6275 10.1024C48.755 10.0317 48.9187 10.0419 49.045 10.1278L61.0761 18.3267C61.202 18.4127 61.2712 18.5614 61.2525 18.7058C61.0123 20.5416 61.3814 22.4406 62.2912 24.0534C62.3642 24.183 62.3553 24.3489 62.2687 24.4763L57.8175 31.0081H53.9529C53.6206 26.1267 49.5458 22.2559 44.5812 22.2559ZM51.6669 31.0084H37.4958C37.8223 27.3852 40.8745 24.5359 44.5812 24.5359C48.2881 24.5358 51.3404 27.3852 51.6669 31.0084ZM6.48653 30.4694C6.48653 29.5966 7.19638 28.8866 8.06919 28.8866H10.7636L10.554 31.0083H6.48653V30.4694ZM3.53106 36.0748C3.53106 34.5383 4.78122 33.2881 6.31794 33.2881H69.9222C71.4589 33.2881 72.7089 34.5383 72.7089 36.0748V39.238H3.53106V36.0748ZM72.7089 74.9334C72.7089 76.47 71.4589 77.7202 69.9222 77.7202H6.31794C4.78122 77.7202 3.53106 76.47 3.53106 74.9334V71.7703H9.67825C10.3079 71.7703 10.8181 71.26 10.8181 70.6305C10.8181 70.0009 10.3078 69.4906 9.67825 69.4906H3.53106V41.5178H72.7089V46.8584H61.8704H61.8703C58.4553 46.8584 55.4972 48.8491 54.0933 51.7305C54.0886 51.7402 54.0833 51.7495 54.0784 51.7592C54.0665 51.7838 54.0562 51.8092 54.0447 51.8339C53.8775 52.1891 53.7322 52.5567 53.6139 52.9361C53.6136 52.9372 53.6133 52.9381 53.6129 52.9392C53.3606 53.75 53.2245 54.6114 53.2245 55.5042C53.2245 60.2716 57.1029 64.15 61.8701 64.15H61.8703H72.7087V69.4906H16.9773C16.3476 69.4906 15.8375 70.0009 15.8375 70.6305C15.8375 71.26 16.3478 71.7703 16.9773 71.7703H72.7089V74.9334ZM76.4689 61.5873C76.4689 61.7433 76.342 61.8702 76.1859 61.8702H61.8706C59.4573 61.8702 57.3533 60.5203 56.274 58.5361C56.225 58.4459 56.1781 58.3544 56.1333 58.2617C56.0437 58.0763 55.9629 57.8858 55.8915 57.6908C55.6412 57.0086 55.5047 56.272 55.5047 55.5042C55.5047 54.7364 55.6414 53.9999 55.8915 53.3177C55.9631 53.1228 56.0439 52.9324 56.1333 52.7467C56.1781 52.6541 56.225 52.5625 56.274 52.4724C57.3533 50.4881 59.4573 49.1383 61.8706 49.1383H76.1859C76.3419 49.1383 76.4689 49.2652 76.4689 49.4211V61.5873Z" fill="#F63D3D"/>
<path d="M62.1377 50.8792C59.5874 50.8792 57.5127 52.9541 57.5127 55.5042C57.5127 58.0544 59.5874 60.1291 62.1377 60.1291C64.688 60.1291 66.7627 58.0544 66.7627 55.5042C66.7627 52.9541 64.688 50.8792 62.1377 50.8792ZM62.1377 57.8492C60.8446 57.8492 59.7925 56.7972 59.7925 55.5042C59.7925 54.2112 60.8446 53.1591 62.1377 53.1591C63.4308 53.1591 64.4829 54.2111 64.4829 55.5042C64.4829 56.7973 63.4308 57.8492 62.1377 57.8492Z" fill="#F63D3D"/>
</g>
<defs>
<clipPath id="clip0">
<rect width="80" height="80" fill="white"/>
</clipPath>
</defs>
</svg>
